<?xml version="1.0" encoding="UTF-8" standalone="no"?>
<!-- Uploaded to: SVG Repo, www.svgrepo.com, Transformed by: SVG Repo Mixer Tools -->
<!-- Modified from https://www.svgrepo.com/svg/9441/guitar-->
<svg
   fill="#ffffff"
   version="1.1"
   id="Capa_1"
   viewBox="0 0 465.07 465.07"
   xml:space="preserve"
   stroke="#ffffff"
   stroke-width="0.0046507200000000005"
   sodipodi:docname="guitar-svgrepo-com.svg"
   inkscape:version="1.3.2 (091e20e, 2023-11-25)"
   xmlns:inkscape="http://www.inkscape.org/namespaces/inkscape"
   xmlns:sodipodi="http://sodipodi.sourceforge.net/DTD/sodipodi-0.dtd"
   xmlns="http://www.w3.org/2000/svg"
   xmlns:svg="http://www.w3.org/2000/svg"><defs
   id="defs2" /><sodipodi:namedview
   id="namedview2"
   pagecolor="#505050"
   bordercolor="#ffffff"
   borderopacity="1"
   inkscape:showpageshadow="0"
   inkscape:pageopacity="0"
   inkscape:pagecheckerboard="1"
   inkscape:deskcolor="#505050"
   inkscape:zoom="1.553073"
   inkscape:cx="141.97658"
   inkscape:cy="130.38666"
   inkscape:window-width="1104"
   inkscape:window-height="602"
   inkscape:window-x="346"
   inkscape:window-y="218"
   inkscape:window-maximized="0"
   inkscape:current-layer="Capa_1" />

<path
   style="display:inline;fill:#ffffff;stroke-width:0.378515"
   d="m 229.90492,3.4362055 c -7.05657,3.4448263 -11.92189,10.2531485 -17.69596,15.4555215 -7.49828,7.30282 -14.94517,15.718193 -17.17472,26.17816 3.15282,5.924501 8.97471,9.996587 13.57035,14.824182 5.22949,2.881873 10.32819,-2.144205 14.9469,-4.311522 10.28369,-7.865503 19.25005,-17.427747 27.76466,-27.14218 3.40289,-6.291249 -1.52507,-13.569392 -5.85811,-18.139143 -4.07614,-3.9770608 -9.64362,-7.4351871 -15.55312,-6.8650185 z"
   id="path4"
   transform="scale(1.8166797)" /><path
   id="path3"
   style="display:inline;fill:#ffffff;stroke-width:0.378515"
   d="M 115.51758 77.949218 C 102.33318 77.978518 90.999129 88.093541 86.416015 100.00976 C 83.11231 109.56162 77.214581 119.72076 66.673828 122.29687 C 50.758862 126.45378 32.933682 128.55008 20.71875 140.76953 C 6.6671994 153.33232 -0.61680304 174.28995 6.515625 192.3418 C 14.186561 213.1914 30.426813 229.78684 48.527343 242.06445 C 62.755965 251.80509 82.151351 256.31674 98.08789 247.95117 C 113.38079 239.90008 125.74673 225.49044 129.1875 208.29101 C 132.31608 197.53977 132.04379 184.25134 141.91797 176.92969 C 151.8916 169.78304 165.95797 167.96527 172.6582 156.63476 C 177.66934 150.1424 178.7017 141.82531 177.75781 133.88867 C 177.01467 125.25855 172.87017 116.76624 166.71094 110.83398 C 160.22538 109.57083 157.29285 117.42648 152.84961 120.75391 C 147.02506 127.46007 139.72615 133.13951 134.86523 140.51758 C 134.15297 147.27503 132.72843 154.74626 126.82226 159.13281 C 118.82705 166.42876 105.37165 165.97468 97.810546 158.27344 C 89.442507 150.33701 89.331326 135.25003 98.246093 127.65039 C 102.92436 122.61084 109.9545 122.01563 116.17578 120.73828 C 123.14557 115.79976 128.73385 108.8136 135.17969 103.09766 C 138.3658 99.104126 144.26807 96.414381 145.24805 91.197265 C 144.79908 85.701698 138.03477 84.170608 134.07617 81.472656 C 128.3475 78.562983 121.87044 77.77566 115.51758 77.949218 z M 44.015625 168.77344 C 45.072153 168.77357 46.129406 169.17683 46.935547 169.98242 L 86.015624 209.06445 C 87.627905 210.67673 87.627905 213.28951 86.015624 214.90234 C 85.209209 215.70821 84.152024 216.11133 83.095703 216.11133 C 82.03883 216.11133 80.984149 215.70821 80.177734 214.90234 L 41.095703 175.82226 C 39.483422 174.20998 39.483422 171.59525 41.095703 169.98242 C 41.902118 169.17628 42.959097 168.7733 44.015625 168.77344 z "
   transform="scale(1.8166797)" /><g
   id="SVGRepo_bgCarrier"
   stroke-width="0" />

<g
   id="SVGRepo_tracerCarrier"
   stroke-linecap="round"
   stroke-linejoin="round" />

<g
   id="SVGRepo_iconCarrier"> <g
   id="g2">  <path
   d="M 464.423,53.43 C 464.624,52.564 469.134,32.023 451.09,13.978 433.045,-4.066 412.505,0.441 411.638,0.645 c -1.366,0.316 -2.616,1.011 -3.608,2.002 l -2.88,2.88 -1.768,-1.768 c -2.93,-2.928 -7.677,-2.929 -10.606,10e-4 -2.929,2.929 -2.929,7.678 10e-4,10.606 l 1.767,1.767 -7.986,7.986 -1.768,-1.768 c -2.93,-2.928 -7.677,-2.929 -10.606,0.001 -2.929,2.929 -2.929,7.678 10e-4,10.606 l 1.767,1.767 -7.986,7.986 -1.768,-1.768 c -2.93,-2.928 -7.678,-2.928 -10.607,0 -2.929,2.93 -2.929,7.678 0,10.607 l 3.249,3.249 -11.219,22.438 -80.766,77.747 C 250.312,142.22 217.63,123.69 183.587,141.913 c -22.692,12.115 -28.734,27.553 -34.064,41.173 -4.247,10.853 -7.915,20.225 -19.394,28.731 -5.339,3.952 -15.196,5.917 -26.61,8.192 -28.515,5.684 -67.567,13.468 -93.229,60.904 -30.572,56.524 14.76,111.313 35.693,132.269 l 5.939,5.929 c 15.912,15.911 51.405,45.96 92.376,45.96 12.89,-0.001 26.323,-2.976 39.858,-10.3 47.438,-25.661 55.223,-64.704 60.906,-93.212 2.275,-11.411 4.24,-21.266 8.191,-26.603 8.504,-11.482 17.878,-15.152 28.732,-19.401 13.623,-5.333 29.064,-11.378 41.169,-34.063 18.224,-34.048 -0.311,-66.731 -13.078,-83.274 l 77.735,-80.754 22.461,-11.231 3.244,3.243 c 1.465,1.464 3.384,2.196 5.303,2.196 1.919,0 3.839,-0.732 5.304,-2.197 2.929,-2.929 2.929,-7.678 -10e-4,-10.606 l -1.767,-1.767 7.986,-7.986 1.767,1.767 c 1.465,1.464 3.385,2.196 5.304,2.196 1.919,0 3.839,-0.732 5.304,-2.196 2.929,-2.93 2.929,-7.678 0,-10.607 l -1.767,-1.767 7.985,-7.985 1.767,1.767 c 1.465,1.464 3.385,2.196 5.304,2.196 1.919,0 3.839,-0.732 5.304,-2.196 2.929,-2.93 2.929,-7.678 0,-10.607 l -1.767,-1.767 2.879,-2.879 c 0.991,-0.992 1.686,-2.242 2.002,-3.608 z M 309.925,274.423 c -9.501,17.807 -20.58,22.145 -33.407,27.166 -11.365,4.449 -24.246,9.492 -35.32,24.443 -5.949,8.037 -8.219,19.417 -10.846,32.596 -5.387,27.018 -12.091,60.642 -53.334,82.952 -47.683,25.804 -95.949,-14.535 -114.479,-33.064 l -5.968,-5.957 C 38.036,384.004 -2.29,335.704 23.482,288.052 c 22.31,-41.24 55.942,-47.943 82.968,-53.331 13.181,-2.627 24.564,-4.896 32.605,-10.849 14.947,-11.077 19.987,-23.956 24.435,-35.318 5.019,-12.825 9.354,-23.9 27.167,-33.411 25.473,-13.636 51.046,-0.133 65.255,10.375 l -48.613,46.795 c -0.711,-0.031 -1.424,-0.052 -2.14,-0.052 -12.778,0 -24.779,4.965 -33.788,13.973 -9.008,8.989 -13.968,20.968 -13.965,33.729 0.002,12.761 4.967,24.738 13.968,33.713 8.998,9.011 20.983,13.974 33.749,13.974 12.766,0 24.746,-4.964 33.716,-13.959 9.001,-8.963 13.967,-20.926 13.982,-33.687 0.001,-0.753 -0.019,-1.504 -0.052,-2.251 l 46.775,-48.592 c 10.51,14.208 24.018,39.783 10.381,65.262 z M 209.293,227.527 c 7.171,0.894 13.793,4.096 18.959,9.252 5.177,5.181 8.393,11.807 9.297,18.982 0.008,0.076 0.018,0.152 0.028,0.228 0.157,1.316 0.245,2.649 0.243,3.997 -0.011,8.748 -3.408,16.942 -9.585,23.094 -6.153,6.171 -14.362,9.569 -23.113,9.569 -8.755,0 -16.971,-3.399 -23.146,-9.584 -6.17,-6.152 -9.569,-14.358 -9.57,-23.105 -0.002,-8.747 3.394,-16.954 9.565,-23.113 6.182,-6.181 14.416,-9.585 23.188,-9.585 1.318,0 2.621,0.086 3.909,0.238 0.074,0.009 0.149,0.019 0.225,0.027 z m 39.367,12.865 c -2.344,-5.231 -5.634,-10.049 -9.805,-14.223 -4.16,-4.151 -8.964,-7.426 -14.181,-9.76 L 353.647,92.256 372.799,111.431 Z M 450.041,48.204 443.65,54.595 c -0.007,0.007 -0.014,0.012 -0.02,0.018 -0.007,0.007 -0.012,0.014 -0.018,0.02 l -18.554,18.554 c -0.007,0.007 -0.014,0.012 -0.02,0.018 -0.007,0.007 -0.012,0.014 -0.018,0.02 l -17.73,17.73 -22.502,11.251 -21.913,-21.938 11.254,-22.508 42.729,-42.729 c 4.118,-0.302 14.189,0.116 23.625,9.553 9.46,9.461 9.858,19.559 9.558,23.62 z"
   id="path2"
   style="display:inline" /> </g> </g>

</svg>
